<?xml version="1.0" encoding="UTF-8"?>
<svg id="Layer_1" xmlns="http://www.w3.org/2000/svg" version="1.1" viewBox="0 0 501 260.8">
  <!-- Generator: Adobe Illustrator 29.3.1, SVG Export Plug-In . SVG Version: 2.1.0 Build 151)  -->
  <defs>
    <style>
      .st0 {
        fill: #3367d6;
      }

      .st0, .st1, .st2, .st3, .st4, .st5, .st6, .st7, .st8 {
        stroke: #dce0df;
        stroke-linejoin: round;
      }

      .st1 {
        fill: #5e97f6;
      }

      .st2 {
        fill: #6a1b9a;
      }

      .st3 {
        fill: #00695c;
      }

      .st4 {
        fill: #00796b;
      }

      .st5 {
        fill: #9c27b0;
      }

      .st6 {
        fill: #26a69a;
      }

      .st7 {
        fill: #ea80fc;
      }

      .st8 {
        fill: #2a56c6;
      }
    </style>
  </defs>
  <polygon class="st1" points="50.5 130.4 25.5 173.7 75.5 173.7 100.5 130.4 50.5 130.4"/>
  <polygon class="st1" points=".5 217 25.5 173.7 75.5 173.7 50.5 217 .5 217"/>
  <polygon class="st1" points="125.5 173.7 75.5 173.7 50.5 217 100.5 217 125.5 173.7"/>
  <polygon class="st1" points="125.5 87.1 75.5 87.1 50.5 130.4 100.5 130.4 125.5 87.1"/>
  <polygon class="st1" points="100.5 43.8 75.5 87.1 125.5 87.1 150.5 43.8 100.5 43.8"/>
  <polygon class="st1" points="125.5 .5 100.5 43.8 150.5 43.8 175.5 .5 125.5 .5"/>
  <polygon class="st1" points="175.5 .5 150.5 43.8 200.5 43.8 225.5 .5 175.5 .5"/>
  <polygon class="st1" points="225.5 .5 200.5 43.8 250.5 43.8 275.5 .5 225.5 .5"/>
  <polygon class="st8" points=".5 217 25.5 260.3 75.5 260.3 50.5 217 .5 217"/>
  <polygon class="st8" points="125.5 260.3 75.5 260.3 50.5 217 100.5 217 125.5 260.3"/>
  <polygon class="st8" points="175.5 260.3 125.5 260.3 100.5 217 150.5 217 175.5 260.3"/>
  <polygon class="st4" points="250.5 217 225.5 173.7 200.5 217 225.5 260.3 250.5 217"/>
  <polygon class="st4" points="300.5 130.4 275.5 87.1 250.5 130.4 300.5 130.4"/>
  <polygon class="st4" points="300.5 43.8 275.5 87.1 300.5 130.4 325.5 87.1 300.5 43.8"/>
  <polygon class="st0" points="125.5 173.7 100.5 130.4 75.5 173.7 125.5 173.7"/>
  <polygon class="st6" points="300.5 130.4 250.5 130.4 225.5 173.7 275.5 173.7 300.5 130.4"/>
  <polygon class="st6" points="350.5 130.4 300.5 130.4 275.5 173.7 325.5 173.7 350.5 130.4"/>
  <polygon class="st5" points="400.5 43.8 375.5 .5 350.5 43.8 375.5 87.1 400.5 43.8"/>
  <polygon class="st5" points="425.5 87.4 400.5 44.1 375.5 87.4 400.5 130.7 425.5 87.4"/>
  <polygon class="st5" points="450.5 130 425.5 86.7 400.5 130 425.5 173.3 450.5 130"/>
  <polygon class="st5" points="475.5 173.3 450.5 130 425.5 173.3 450.5 216.6 475.5 173.3"/>
  <polygon class="st5" points="500.5 216.6 475.5 173.3 450.5 216.6 475.5 259.9 500.5 216.6"/>
  <polygon class="st5" points="475.5 .5 450.5 43.8 475.5 87.1 500.5 43.8 475.5 .5"/>
  <polygon class="st5" points="425.5 86.7 450.5 43.4 475.5 86.7 450.5 130 425.5 86.7"/>
  <polygon class="st5" points="400.5 130 375.5 173.3 400.5 216.6 425.5 173.3 400.5 130"/>
  <polygon class="st5" points="375.5 260.3 350.5 217 375.5 173.7 400.5 217 375.5 260.3"/>
  <polygon class="st2" points="325.5 260.3 300.5 217 350.5 217 375.5 260.3 325.5 260.3"/>
  <polygon class="st3" points="275.5 173.7 225.5 173.7 250.5 217 300.5 217 275.5 173.7"/>
  <polygon class="st3" points="325.5 173.7 275.5 173.7 300.5 217 325.5 173.7"/>
  <polygon class="st3" points="325.5 87.1 350.5 130.4 400.5 130.4 375.5 87.1 325.5 87.1"/>
  <polygon class="st3" points="350.5 43.8 300.5 43.8 325.5 87.1 375.5 87.1 350.5 43.8"/>
  <polygon class="st3" points="475.5 259.9 450.5 216.6 400.5 216.6 425.5 259.9 475.5 259.9"/>
  <polygon class="st3" points="425.5 173.3 400.5 216.6 450.5 216.6 425.5 173.3"/>
  <polygon class="st7" points="375.5 .5 325.5 .5 300.5 43.8 350.5 43.8 375.5 .5"/>
  <polygon class="st7" points="375.5 173.7 325.5 173.7 300.5 217 350.5 217 375.5 173.7"/>
  <polygon class="st7" points="400.5 130.4 350.5 130.4 325.5 173.7 375.5 173.7 400.5 130.4"/>
  <polygon class="st7" points="475.5 .5 425.5 .5 400.5 43.8 450.5 43.8 475.5 .5"/>
  <polygon class="st7" points="425.5 87.1 400.5 43.8 450.5 43.8 425.5 87.1"/>
  <polygon class="st1" points="125.5 173.7 100.5 217 150.5 217 175.5 173.7 125.5 173.7"/>
  <polygon class="st0" points="150.5 130.4 125.5 87.1 150.5 43.8 175.5 87.1 150.5 130.4"/>
  <polygon class="st0" points="125.5 173.7 100.5 130.4 125.5 87.1 150.5 130.4 125.5 173.7"/>
  <polygon class="st8" points="275.5 87.1 250.5 43.8 275.5 .5 300.5 43.8 275.5 87.1"/>
  <polygon class="st8" points="275.5 87.1 225.5 87.1 200.5 43.8 250.5 43.8 275.5 87.1"/>
  <polygon class="st8" points="175.5 260.3 150.5 217 175.5 173.7 200.5 217 175.5 260.3"/>
  <polygon class="st6" points="325.5 .5 275.5 .5 250.5 43.8 300.5 43.8 325.5 .5"/>
  <polygon class="st6" points="300.5 43.8 250.5 43.8 225.5 87.1 275.5 87.1 300.5 43.8"/>
  <polygon class="st6" points="275.5 87.1 225.5 87.1 200.5 130.4 250.5 130.4 275.5 87.1"/>
  <polygon class="st6" points="250.5 130.4 200.5 130.4 175.5 173.7 225.5 173.7 250.5 130.4"/>
  <polygon class="st6" points="225.5 173.7 175.5 173.7 150.5 217 200.5 217 225.5 173.7"/>
  <polygon class="st8" points="225.5 87.1 175.5 87.1 150.5 43.8 200.5 43.8 225.5 87.1"/>
  <polygon class="st3" points="200.5 217 150.5 217 175.5 260.3 225.5 260.3 200.5 217"/>
</svg>